<svg width="265" height="244" viewBox="0 0 265 244" fill="none" xmlns="http://www.w3.org/2000/svg">
<path d="M67.9095 200H201.227C208.081 200 213.758 194.679 214.2 187.839L223.26 47.7063C223.683 41.1646 219.169 35.3315 212.73 34.0993L61.3116 5.12163C53.018 3.53444 45.4358 10.1519 45.8867 18.584L54.9281 187.694C55.297 194.594 60.9995 200 67.9095 200Z" fill="url(#paint0_linear_8_2)"/>
<path d="M110.759 185.88L114.711 189.376C115.167 189.224 116.383 188.707 119.423 188.464C122.463 188.221 124.54 188.718 125.655 188.92C126.77 187.299 129.12 184.087 129.607 184.208C130.093 184.33 129.809 188.312 129.607 190.288C130.113 191.048 131.248 193.48 131.735 197.128C132.343 201.688 131.279 207.616 132.343 212.631C133.194 216.644 135.535 221.599 136.599 223.575C135.869 224.426 134.775 224.639 134.319 224.639C132.495 225.247 126.77 225.5 124.135 225.551C123.476 225.855 122.068 226.433 121.703 226.311C121.338 226.189 120.538 225.754 120.183 225.551H113.343C107.568 225.551 105.744 224.639 102.704 224.639C99.6638 224.639 90.5441 226.159 85.8323 227.223C81.1205 228.287 78.3846 228.895 78.0806 227.223C77.7766 225.551 78.0806 224.335 83.5524 222.359C87.9298 220.778 95.8133 218.661 99.2079 217.799C97.6879 201.384 104.68 179.649 105.592 179.041C106.504 178.433 110.759 178.433 110.759 179.041V185.88Z" fill="#BFBFBF" stroke="#151C35" stroke-linecap="round"/>
<path d="M126.263 214.911L129.303 220.079" stroke="#151C35" stroke-linecap="round"/>
<path d="M110.76 185.88C110.405 185.576 109.635 184.968 109.392 184.968C109.148 184.968 109.797 189.224 110.152 191.352C109.544 193.126 108.328 197.979 108.328 203.208C108.328 208.436 110.456 213.088 111.52 214.759" stroke="#151C35" stroke-linecap="round"/>
<path d="M120.183 225.551C118.917 224.487 115.745 221.417 113.191 217.647" stroke="#151C35" stroke-linecap="round"/>
<path d="M124.135 225.551C124.54 225.348 125.381 224.852 125.503 224.487C125.625 224.122 122.311 217.039 120.639 213.544" stroke="#151C35" stroke-linecap="round"/>
<path d="M123.223 219.167C126.314 219.623 132.677 220.566 133.407 220.687C134.319 220.839 134.623 220.839 134.623 221.903C134.623 222.967 134.471 224.183 134.319 224.639" stroke="#151C35" stroke-linecap="round"/>
<path d="M101.184 217.647L103.464 218.711" stroke="#151C35" stroke-width="0.5" stroke-linecap="round"/>
<path d="M102.552 217.039L101.944 219.623" stroke="#151C35" stroke-width="0.5" stroke-linecap="round"/>
<path d="M105.288 220.231C104.882 219.775 104.193 218.499 104.68 217.039C105.288 215.215 107.416 214.759 108.632 215.367C109.604 215.854 109.949 216.887 110 217.343" stroke="#151C35" stroke-linecap="round"/>
<path d="M110 218.255C110 218.813 109.604 220.049 108.024 220.535" stroke="#151C35" stroke-linecap="round"/>
<path d="M104.984 216.431C104.477 216.33 103.403 215.793 103.16 214.455C102.856 212.784 104.072 211.72 105.288 211.568C106.504 211.416 108.176 212.176 108.024 214.151" stroke="#151C35" stroke-linecap="round"/>
<path d="M118.511 196.885C118.633 197.007 119.677 197.848 120.183 198.253C120.791 197.797 121.855 197.037 122.007 196.885C122.248 196.645 121.247 196.277 120.183 196.277C119.119 196.277 118.359 196.733 118.511 196.885Z" fill="#151C35"/>
<path d="M120.183 197.584V199.712C120.386 200.067 121.065 200.806 122.159 200.928C123.254 201.05 124.034 200.573 124.287 200.32" stroke="#151C35" stroke-linecap="round"/>
<path d="M120.183 199.712C119.778 200.421 118.451 201.566 116.383 200.472" stroke="#151C35" stroke-linecap="round"/>
<ellipse cx="115.015" cy="193.328" rx="0.759974" ry="0.911969" fill="#151C35"/>
<path d="M116.13 189.622C117.245 192.075 120.344 195.509 123.823 189.622C122.217 187.482 118.025 188.73 116.13 189.622Z" fill="white" stroke="white"/>
<ellipse cx="125.047" cy="193.328" rx="0.759974" ry="0.911969" fill="#151C35"/>
<path d="M114.711 189.376C114.306 189.528 113.374 189.893 112.887 190.136" stroke="#151C35" stroke-linecap="round"/>
<path d="M125.655 188.92C126.162 189.072 127.297 189.437 127.783 189.68" stroke="#151C35" stroke-linecap="round"/>
<path d="M110.912 197.28L113.951 196.216" stroke="#151C35" stroke-width="0.5" stroke-linecap="round"/>
<path d="M129.455 197.28L126.415 196.216" stroke="#151C35" stroke-width="0.5" stroke-linecap="round"/>
<path d="M113.039 198.344L114.559 197.128" stroke="#151C35" stroke-width="0.5" stroke-linecap="round"/>
<path d="M127.327 198.344L125.807 197.128" stroke="#151C35" stroke-width="0.5" stroke-linecap="round"/>
<path d="M115.351 152.047L162.704 214.346H170.296C170.296 214.346 165.215 157.587 133.988 145.368L115.351 152.047Z" fill="#EDB98A"/>
<mask id="mask0_8_2" style="mask-type:luminance" maskUnits="userSpaceOnUse" x="115" y="145" width="56" height="70">
<path d="M169.734 213.759C169.737 213.789 169.74 213.818 169.743 213.846H162.952L116.162 152.288L133.98 145.902C149.261 151.983 158.229 168.955 163.377 184.596C165.954 192.425 167.56 199.877 168.522 205.373C169.002 208.12 169.322 210.377 169.521 211.947C169.62 212.731 169.69 213.344 169.734 213.759Z" fill="white"/>
<path d="M169.734 213.759C169.737 213.789 169.74 213.818 169.743 213.846H162.952L116.162 152.288L133.98 145.902C149.261 151.983 158.229 168.955 163.377 184.596C165.954 192.425 167.56 199.877 168.522 205.373C169.002 208.12 169.322 210.377 169.521 211.947C169.62 212.731 169.69 213.344 169.734 213.759Z" stroke="white"/>
</mask>
<g mask="url(#mask0_8_2)">
<path d="M149.142 157.004C149.142 157.004 158.447 159.528 154.716 203.838L112.707 152.989L117.2 138.651C117.2 138.651 142.266 140.353 149.142 157.004Z" fill="#EDB98A"/>
</g>
<path d="M172.362 62.0523C172.362 62.0523 167.395 80.7556 157.079 81.5585C146.762 82.3614 152.39 53.7234 152.39 53.7234L148.58 52.4994C148.58 52.4994 135.896 77.8614 130.836 67.8527L127.165 100.455C127.165 100.455 131.987 110.683 161.043 104.849C161.043 104.849 172.44 78.5585 174.485 63.3914L172.362 62.0523Z" fill="white"/>
<path d="M125.788 108.946C125.788 108.946 115.635 128.946 113.708 136.798C112.515 141.661 111.873 151.547 111.873 151.547C111.873 151.547 122.589 154.314 127.985 152.181L139.001 128.714L125.788 108.946Z" fill="black"/>
<path d="M149.142 157.004C149.142 157.004 147.444 160.218 139.923 156.705L145.393 150.022C145.393 150.022 149.325 153.498 149.142 157.004Z" fill="black"/>
<path d="M148.337 149.72C148.466 149.962 148.567 150.159 148.638 150.301L141.673 160.436L141.45 160.76L141.713 161.053C144.805 164.497 146.656 169.514 147.671 175.166C148.684 180.809 148.854 187.031 148.626 192.828C148.398 198.623 147.774 203.98 147.207 207.889C146.923 209.842 146.653 211.433 146.455 212.535C146.356 213.086 146.275 213.514 146.218 213.804C146.215 213.819 146.213 213.833 146.21 213.847H139.823L139.756 213.627L139.263 211.998L137.494 206.15C136.023 201.293 134.049 194.772 132.034 188.119C128.004 174.815 123.809 160.977 123.15 158.856C122.861 157.927 122.951 156.522 123.307 154.859C123.66 153.218 124.253 151.407 124.892 149.714C125.531 148.023 126.211 146.462 126.732 145.323C126.993 144.753 127.213 144.29 127.368 143.97C127.445 143.81 127.507 143.685 127.548 143.601L127.581 143.536C130.606 140.265 133.396 139.123 135.851 139.152C138.336 139.181 140.593 140.41 142.525 142.101C144.454 143.789 146.015 145.901 147.097 147.602C147.637 148.45 148.055 149.192 148.337 149.72Z" fill="#EDB98A" stroke="black"/>
<path d="M174.484 63.3914C174.484 63.3914 191.077 68.478 189.206 81.2081C187.335 93.9381 166.522 114.553 166.522 114.553L161.926 102.76C161.926 102.76 161.907 101.97 161.943 100.699C162.17 92.8616 165.222 85.3683 170.51 79.5734C170.51 79.5734 174.102 65.2574 174.484 63.3914Z" fill="#EDB98A"/>
<path d="M125.788 108.946L133.388 130.952L127.165 143.249C127.165 143.249 143.717 146.688 149.142 157.004C149.142 157.004 155.701 143.885 161.043 130.704C165.239 120.351 160.161 111.106 160.161 111.106L125.788 108.946Z" fill="black"/>
<mask id="mask1_8_2" style="mask-type:luminance" maskUnits="userSpaceOnUse" x="125" y="108" width="38" height="50">
<path d="M125.788 108.946L133.388 130.952L127.165 143.249C127.165 143.249 143.717 146.688 149.142 157.004C149.142 157.004 155.701 143.885 161.043 130.704C165.239 120.351 160.161 111.106 160.161 111.106L125.788 108.946Z" fill="white"/>
</mask>
<g mask="url(#mask1_8_2)">
<path d="M142.085 152.989C142.085 152.989 157.217 128.289 157.622 125.859C158.028 123.428 157.082 108.946 157.082 108.946L164.019 108.129C164.019 108.129 166.402 124.508 165.121 131.53C163.841 138.551 149.73 162.045 149.215 161.505C148.7 160.965 142.085 152.989 142.085 152.989Z" fill="black"/>
</g>
<path d="M127.165 100.455L125.788 108.946C125.788 108.946 138.991 117.131 160.161 111.106L161.043 104.849C161.043 104.849 135.485 108.903 127.165 100.455Z" fill="white"/>
<path d="M150.14 98.0861C150.436 98.0727 162.432 100.793 166.665 107.096C170.898 113.398 163.288 118.425 159.269 118.162C155.25 117.898 144.246 103.656 144.246 103.656L150.14 98.0861Z" fill="#EDB98A"/>
<mask id="mask2_8_2" style="mask-type:luminance" maskUnits="userSpaceOnUse" x="144" y="98" width="24" height="21">
<path d="M150.14 98.0861C150.436 98.0727 162.432 100.793 166.665 107.096C170.898 113.398 163.288 118.425 159.269 118.162C155.25 117.898 144.246 103.656 144.246 103.656L150.14 98.0861Z" fill="white"/>
<path d="M163 103C160.167 101.333 154.2 98.2 153 99" stroke="white"/>
</mask>
<g mask="url(#mask2_8_2)">
<path d="M149.421 101.553C149.421 101.553 149.483 101.75 149.607 102.099C150.603 104.919 155.566 117.712 163.774 118.172C163.774 118.172 161.313 120.259 158.716 119.098C156.119 117.937 146.892 108.129 146.892 108.129L149.421 101.553Z" fill="#EDB98A"/>
</g>
<path d="M155.78 99.4502C153.022 98.1317 151.384 95.2559 151.598 92.2089C151.833 88.8429 151.412 85.3465 150.059 82.4938C146.749 75.5159 134.145 79.4161 134.145 79.4161C125.883 82.2026 124.002 86.4105 125.332 89.8137C126.762 93.4689 134.314 99.8621 140.335 102.751C143.401 104.222 146.135 106.299 148.325 108.899L148.365 108.946C153.599 107.509 155.78 99.4502 155.78 99.4502Z" fill="black"/>
<path d="M174.5 63.5L170.5 79.5C167.5 82.5 161.6 91.4 162 103" stroke="black" stroke-linecap="round"/>
<path d="M127.165 143.249L133.238 129.707C133.657 128.774 133.643 127.705 133.201 126.783L128.727 117.457L132.039 127.484C132.261 128.155 132.215 128.886 131.912 129.524L126.275 141.364C125.91 142.132 126.339 143.042 127.165 143.249Z" fill="black"/>
<path d="M175 63.5C180.833 66 191.9 73.2 189.5 82C186.5 93 164.5 117 162.5 117.5C160.5 118 156.5 118 156.5 117" stroke="black"/>
<path d="M130.836 67.8527L106.978 69.5949L66.0999 72.5509V64.9483C66.0999 64.9483 89.3074 51.4266 108.493 56.4985C108.493 56.4985 128.321 40.9094 148.58 52.4996C148.58 52.4994 135.842 79.3921 130.836 67.8527Z" fill="#EDB98A"/>
<mask id="mask3_8_2" style="mask-type:luminance" maskUnits="userSpaceOnUse" x="66" y="48" width="83" height="25">
<path d="M130.836 67.8527L106.978 69.5949L66.0999 72.5509V64.9483C66.0999 64.9483 89.3074 51.4266 108.493 56.4985C108.493 56.4985 128.321 40.9094 148.58 52.4996C148.58 52.4994 135.842 79.3921 130.836 67.8527Z" fill="white"/>
</mask>
<g mask="url(#mask3_8_2)">
<path d="M130.836 67.8527C130.836 67.8527 136.133 67.4652 140.362 60.7172C140.362 60.7172 139.064 71.9111 133.809 72.5509C128.555 73.1908 130.836 67.8527 130.836 67.8527Z" fill="#EDB98A"/>
</g>
<mask id="mask4_8_2" style="mask-type:luminance" maskUnits="userSpaceOnUse" x="66" y="51" width="83" height="22">
<path d="M130.836 67.8527L106.978 69.5949L66.0999 72.5509V64.9483L108.493 56.4985C108.493 56.4985 127.16 48.4407 148.58 52.4996C148.58 52.4996 135.842 79.3921 130.836 67.8527Z" fill="white"/>
</mask>
<g mask="url(#mask4_8_2)">
<path d="M77.2941 65.9536C77.2941 65.9536 94.3143 68.7436 97.1075 68.8734C99.901 69.0032 118.813 68.7305 118.813 68.7305L75.3452 74.3238L74.8906 71.7283L77.2941 65.9536Z" fill="#EDB98A"/>
</g>
<path d="M73.5 62C78.8333 58.6667 93.3 52.9 108.5 56.5C116.333 51.1667 135.1 42.9 147.5 52.5M76 72L131 68L126 109L115 152L124.5 163.5" stroke="black" stroke-linejoin="round"/>
<path d="M149 196L163 214.5H170.5C168 199.5 160.8 167 150 157L148.5 155" stroke="black"/>
<path d="M69.253 61.6541C69.253 61.6541 73.6173 59.534 76.0026 60.9038C78.388 62.2735 84.8683 72.7671 73.0857 72.8659C73.0857 72.8659 69.0712 85.2947 61.2687 79.7356C61.2687 79.7356 48.9577 80.5462 45.6197 73.6159C42.2817 66.6857 48.6327 59.739 54.6661 59.7066C60.6993 59.6744 69.253 61.6541 69.253 61.6541Z" fill="black"/>
<path d="M161.556 46.613C161.699 45.6039 161.776 44.5497 161.776 43.4645C161.776 36.1851 158.357 30.2839 154.14 30.2839C149.922 30.2839 146.504 36.1851 146.504 43.4645C146.504 47.9304 147.791 51.8768 149.759 54.2609C147.69 59.2603 140.859 78.1875 154.14 82.1479C169.474 86.7209 172.362 62.0524 172.362 62.0524L172.271 61.9936C166.814 58.4725 162.965 52.9472 161.556 46.613Z" fill="#EDB98A"/>
<mask id="mask5_8_2" style="mask-type:luminance" maskUnits="userSpaceOnUse" x="146" y="30" width="27" height="53">
<path d="M161.556 46.613C161.699 45.6039 161.776 44.5497 161.776 43.4645C161.776 36.1851 158.357 30.2839 154.14 30.2839C149.922 30.2839 146.504 36.1851 146.504 43.4645C146.504 47.9304 147.791 51.8768 149.759 54.2609C147.69 59.2603 140.859 78.1875 154.14 82.1479C169.474 86.7209 172.362 62.0524 172.362 62.0524L172.271 61.9936C166.814 58.4725 162.965 52.9472 161.556 46.613Z" fill="white"/>
</mask>
<g mask="url(#mask5_8_2)">
<path d="M156.017 53.5437C156.017 53.5437 159.74 57.5538 159.616 60.9771C159.492 64.4003 145.989 68.6896 145.989 68.6896C145.989 68.6896 148.09 55.8734 149.519 53.9582C149.519 53.9582 150.529 55.3018 153.091 55.1343C153.091 55.1343 155.373 54.5254 156.017 53.5437Z" fill="#EDB98A"/>
</g>
<path d="M152.411 55.3017C150.784 55.3017 149.698 54.3659 149.68 54.3495C149.631 54.306 149.627 54.2311 149.67 54.1822C149.714 54.1332 149.789 54.1288 149.838 54.1722C149.96 54.2798 152.854 56.7618 156.337 53.0557C156.383 53.0079 156.458 53.0057 156.505 53.0504C156.553 53.0953 156.556 53.1703 156.511 53.2182C154.996 54.8288 153.567 55.3017 152.411 55.3017Z" fill="#19283F"/>
<path d="M146.962 38.9552L155.911 38.616C155.911 38.616 155.072 42.7624 156.424 43.6639C157.776 44.5653 157.174 40.5991 158.438 41.801C159.354 42.6723 159.289 44.8387 158.933 45.9186C158.763 46.4329 158.879 46.9981 159.259 47.3849L160.656 48.8088C161.038 49.1977 161.691 49.0854 161.921 48.5916C161.921 48.5916 164.153 36.633 160.002 31.5251C155.851 26.4171 146.971 29.9815 146.962 38.9552Z" fill="#19283F"/>
<path d="M147.734 49.3393C147.709 49.3393 147.683 49.3359 147.657 49.3292C146.366 48.9846 146.154 47.8877 146.145 47.8412L146.1 47.5937L146.337 47.5091C148.54 46.7234 148.732 42.8074 148.734 42.768C148.741 42.6045 148.873 42.4794 149.043 42.4843C149.207 42.4912 149.334 42.6292 149.327 42.7929C149.32 42.9639 149.131 46.8514 146.807 47.9557C146.923 48.2035 147.197 48.5922 147.811 48.756C147.969 48.7983 148.063 48.9608 148.021 49.119C147.985 49.2517 147.865 49.3392 147.734 49.3393Z" fill="#19283F"/>
<path d="M152.315 42.5409C152.315 43.0136 152.086 43.3967 151.804 43.3967C151.522 43.3967 151.293 43.0135 151.293 42.5409C151.293 42.0683 151.522 41.6852 151.804 41.6852C152.086 41.6852 152.315 42.0683 152.315 42.5409Z" fill="#19283F"/>
<path d="M148.245 42.3105C148.245 42.7832 148.016 43.1662 147.734 43.1662C147.452 43.1662 147.223 42.783 147.223 42.3105C147.223 41.8378 147.452 41.4547 147.734 41.4547C148.016 41.4547 148.245 41.8378 148.245 42.3105Z" fill="#19283F"/>
<path d="M148.003 51.6051C147.886 51.6051 147.775 51.5358 147.728 51.4213C147.666 51.2699 147.738 51.0965 147.89 51.0343L150.923 49.788C151.075 49.7254 151.248 49.798 151.31 49.9494C151.373 50.1009 151.3 50.2742 151.149 50.3365L148.116 51.5828C148.079 51.5979 148.041 51.6051 148.003 51.6051Z" fill="#19283F"/>
<path d="M151.254 40.9376C150.822 40.9376 150.526 40.8477 150.499 40.8392C150.342 40.7899 150.256 40.6233 150.305 40.467C150.354 40.311 150.52 40.2248 150.676 40.2732C150.726 40.2883 151.876 40.6253 152.892 39.7031C153.013 39.5929 153.201 39.602 153.311 39.723C153.421 39.8442 153.412 40.0317 153.291 40.1419C152.576 40.7912 151.805 40.9376 151.254 40.9376Z" fill="#19283F"/>
<path d="M148.825 40.7591C148.709 40.7591 148.388 40.7276 147.874 40.6761C147.446 40.6333 146.86 40.5734 146.735 40.5777C146.57 40.5802 146.435 40.4521 146.431 40.2885C146.427 40.1247 146.557 39.9887 146.721 39.9848C146.869 39.9808 147.299 40.0224 147.934 40.086C148.308 40.1234 148.733 40.1659 148.825 40.1659C148.989 40.1659 149.122 40.2987 149.122 40.4626C149.122 40.6262 148.989 40.7591 148.825 40.7591Z" fill="#19283F"/>
<path d="M158.096 45.749C157.984 45.749 157.876 45.7124 157.794 45.6387C157.721 45.5732 157.714 45.4606 157.78 45.3873C157.846 45.3139 157.959 45.308 158.032 45.3736C158.069 45.4064 158.156 45.3951 158.212 45.3505C158.278 45.2975 158.329 45.205 158.373 45.0593C158.518 44.5745 158.475 44.0483 158.434 43.5394C158.423 43.4114 158.412 43.2792 158.36 43.1777C158.32 43.0982 158.245 43.041 158.184 43.0469C158.098 43.0535 158.016 43.1606 157.932 43.3744C157.809 43.6916 157.681 44.0193 157.693 44.3495C157.696 44.4477 157.619 44.5302 157.521 44.5336C157.422 44.5354 157.34 44.4603 157.337 44.3622C157.322 43.9585 157.47 43.5797 157.6 43.2454C157.656 43.1015 157.805 42.719 158.156 42.6919C158.357 42.6754 158.57 42.806 158.678 43.0152C158.762 43.1798 158.777 43.3631 158.789 43.5106C158.831 44.0268 158.878 44.6122 158.714 45.161C158.673 45.2984 158.599 45.4965 158.434 45.6285C158.334 45.7087 158.213 45.749 158.096 45.749Z" fill="#19283F"/>
<path d="M146.62 214.347H139.452L126.416 219.427C123.848 220.427 121.634 222.164 120.052 224.419L119.369 225.393H147.559L146.62 214.347Z" fill="black"/>
<mask id="mask6_8_2" style="mask-type:luminance" maskUnits="userSpaceOnUse" x="119" y="214" width="29" height="12">
<path d="M146.62 214.347H139.452L126.416 219.427C123.848 220.427 121.634 222.164 120.052 224.419L119.369 225.393H147.559L146.62 214.347Z" fill="white"/>
</mask>
<g mask="url(#mask6_8_2)">
<path d="M138.351 227.006C138.208 227.006 138.082 226.903 138.059 226.757C137.72 224.66 139.088 222.341 142.124 219.865C144.343 218.054 146.69 216.818 146.713 216.805C146.858 216.73 147.038 216.785 147.114 216.931C147.191 217.075 147.135 217.255 146.989 217.331C146.898 217.378 137.915 222.143 138.645 226.662C138.671 226.824 138.561 226.976 138.399 227.002C138.383 227.005 138.367 227.006 138.351 227.006Z" fill="black"/>
</g>
<mask id="mask7_8_2" style="mask-type:luminance" maskUnits="userSpaceOnUse" x="119" y="214" width="29" height="12">
<path d="M146.62 214.347H139.452L126.416 219.427C123.848 220.427 121.634 222.164 120.052 224.419L119.369 225.393H147.559L146.62 214.347Z" fill="white"/>
</mask>
<g mask="url(#mask7_8_2)">
<path d="M124.361 222.015C124.283 222.015 124.206 222.009 124.13 221.996C123.506 221.89 123.079 221.403 122.695 220.914L122.286 220.392C122.185 220.263 122.207 220.077 122.336 219.976C122.466 219.875 122.652 219.897 122.753 220.027L123.163 220.548C123.488 220.963 123.815 221.341 124.23 221.412C124.491 221.455 124.788 221.367 125.027 221.173C125.247 220.995 125.428 220.726 125.551 220.394C125.674 220.062 125.685 219.628 125.577 219.362L126.115 219.113C126.317 219.496 126.716 219.79 127.183 219.899C127.617 220.001 128.117 219.949 128.589 219.753C128.736 219.691 128.849 219.63 128.943 219.56C129.197 219.373 129.365 219.073 129.393 218.759C129.399 218.694 129.385 218.618 129.36 218.55C129.286 218.468 129.217 218.381 129.153 218.289L128.322 217.093L129.556 217.869C129.691 217.954 129.793 218.079 129.864 218.219C130.184 218.541 130.603 218.749 131.037 218.789C131.592 218.84 132.163 218.604 132.49 218.185C132.826 217.755 132.896 217.132 132.661 216.669L131.605 214.591L133.148 216.339C133.516 216.756 133.844 217.029 134.181 217.2C134.586 217.404 135.021 217.456 135.375 217.341C135.747 217.22 136.034 216.885 136.058 216.545C136.075 216.292 135.951 216.012 135.831 215.741L135.045 213.96L136.309 215.387C136.48 215.58 136.75 215.719 137.069 215.777C137.392 215.836 137.731 215.815 138.049 215.783C138.376 215.75 138.734 215.686 138.911 215.467C139.112 215.219 139.065 214.81 138.999 214.412C138.972 214.251 139.081 214.098 139.243 214.071C139.406 214.044 139.558 214.154 139.585 214.315C139.669 214.822 139.729 215.401 139.373 215.84C139.059 216.229 138.558 216.327 138.109 216.373C137.765 216.408 137.359 216.433 136.962 216.36C136.863 216.342 136.752 216.316 136.636 216.277C136.652 216.377 136.657 216.48 136.65 216.585C136.61 217.166 136.161 217.709 135.559 217.905C135.056 218.068 134.457 218.004 133.913 217.729C133.723 217.632 133.549 217.516 133.391 217.393C133.367 217.805 133.22 218.215 132.958 218.55C132.51 219.124 131.733 219.45 130.981 219.38C130.619 219.346 130.266 219.225 129.949 219.034C129.858 219.431 129.624 219.795 129.296 220.037C129.164 220.135 129.008 220.221 128.817 220.3C128.231 220.544 127.602 220.607 127.047 220.477C126.748 220.406 126.467 220.278 126.226 220.105C126.203 220.287 126.161 220.457 126.108 220.6C125.948 221.031 125.704 221.389 125.401 221.634C125.097 221.88 124.722 222.015 124.361 222.015Z" fill="black"/>
</g>
<path d="M147.558 225.393H119.368V227.079H147.558V225.393Z" fill="black"/>
<path d="M173.675 218.389L171 214H162.784L162.622 217.939C155.864 217.074 156 227 156 227H162.249H171.821H177C176.395 223.981 175.272 221.074 173.675 218.389Z" fill="black"/>
<path d="M168.976 222.938C168.885 222.938 168.795 222.896 168.737 222.817C166.547 219.851 162.648 218.52 162.609 218.506C162.454 218.454 162.37 218.286 162.422 218.131C162.474 217.976 162.642 217.892 162.798 217.944C162.965 218 166.911 219.345 169.215 222.465C169.312 222.597 169.284 222.783 169.152 222.88C169.099 222.919 169.037 222.938 168.976 222.938Z" fill="black"/>
<path fill-rule="evenodd" clip-rule="evenodd" d="M146.287 39.5792C146.777 36.7221 146.477 33.9093 148.546 31.6828C154.747 24.3976 168.423 27.7627 168.848 38.2953C169.138 39.5145 169.29 40.7747 169.269 42.0326C169.262 42.5692 170.438 41.7268 170.747 42.1953C171.435 43.0668 170.878 45.0911 170.928 46.1767C170.791 47.2316 169.56 48.3479 168.692 48.7825C168.168 48.9722 167.68 49.3555 167.508 49.9138C166.431 52.3169 165.643 54.3109 163.85 55.997C163.388 56.4312 158.563 59.1286 156.936 59.2028C152.173 59.4202 146.086 57.8234 145.724 52.0596C145.649 50.7934 145.796 49.5023 145.868 48.2395C146.05 45.3567 145.805 42.3894 146.287 39.5792Z" fill="#EDB98A" stroke="black"/>
<path fill-rule="evenodd" clip-rule="evenodd" d="M146.33 38.1593C146.327 38.1244 146.28 38.1187 146.273 38.1536C146.127 38.8427 146.058 39.5411 145.951 40.239C145.848 40.9113 145.752 41.5851 145.678 42.2619C145.538 43.5393 145.429 44.8185 145.332 46.1005L145.308 46.4211C145.141 48.6768 144.802 51.0342 145.294 53.2729C145.713 55.1832 146.896 56.6843 148.382 57.7566C149.788 58.7718 151.466 59.388 153.118 59.7065C154.891 60.0484 156.976 60.0794 158.34 58.6195C158.886 58.0349 158.057 56.9623 157.46 57.4946C156.058 58.7443 154.191 58.4799 152.527 58.0841L152.477 58.072C151.016 57.7215 149.537 57.1567 148.344 56.1443C147.025 55.025 146.325 53.42 146.172 51.6317C146.085 50.627 146.126 49.6176 146.174 48.6127L146.18 48.5011C146.235 47.3518 146.295 46.2029 146.347 45.0534C146.394 44.0052 146.428 42.9515 146.423 41.9009L146.42 41.3712C146.413 40.303 146.42 39.2186 146.33 38.1593Z" fill="black"/>
<path fill-rule="evenodd" clip-rule="evenodd" d="M150.269 56.3236C150.544 56.1973 150.815 56.0527 151.086 55.9128C152.464 54.9692 154.17 54.7318 155.691 55.4043C156.438 55.7344 157.148 56.3563 157.9 56.7507C158.078 56.8229 158.256 56.8877 158.436 56.9406C158.543 56.889 158.65 56.8343 158.755 56.7797C159.516 56.383 160.226 55.904 160.913 55.3814C160.983 55.2464 161.056 55.115 161.135 54.9885C160.617 54.9219 160.108 54.7953 159.646 54.6618C158.228 54.2533 156.877 53.544 155.463 53.1145C154.146 52.7133 152.728 52.5259 151.453 53.1566C150.847 53.4561 150.325 53.9559 149.739 54.3032C149.436 54.4823 149.07 54.6613 148.708 54.7017C148.974 55.3837 149.3 56.0172 149.73 56.5374C149.913 56.4803 150.093 56.4033 150.269 56.3236ZM147.269 51.7646C147.383 51.8576 147.849 52.1534 148.004 52.3353C148.041 52.318 148.078 52.3004 148.114 52.2824C148.175 52.1942 148.268 52.1524 148.365 52.1503C149.024 51.781 149.603 51.2751 150.112 50.6508C150.474 50.2079 150.844 49.7447 151.342 49.4747C151.928 49.1556 152.524 49.2632 153.156 49.2788C153.829 49.2964 154.482 49.0607 155.157 49.1288C155.65 49.179 156.119 49.382 156.53 49.6795C157.369 50.2867 157.968 51.1658 158.688 51.9147C159.504 52.7641 160.485 53.286 161.559 53.5265C161.572 53.5167 161.585 53.5069 161.598 53.4979C162.346 52.6983 163.013 51.8035 163.597 50.856C164.166 49.9305 165.592 45.8164 165.964 45.4442C166.119 45.2894 166.293 45.2179 166.463 45.2155C166.77 45.2092 167.064 45.4263 167.207 45.7827C167.45 46.3886 167.379 47.1896 167.391 47.8345C167.406 48.6239 167.394 49.4137 167.353 50.2019C167.312 50.9808 167.247 51.7585 167.157 52.532C167.111 52.923 167.059 53.3136 166.999 53.7029C166.981 53.8255 166.955 53.9354 166.923 54.0379C166.894 54.2298 166.862 54.4211 166.828 54.611C166.602 55.8547 166.213 57.1073 165.406 58.0543C164.565 59.0412 163.392 59.7246 162.303 60.3377C161.265 60.9217 160.173 61.4483 159.048 61.8732C158.078 62.4035 157.033 62.8354 155.975 63.0856C154.811 63.3614 153.578 63.4314 152.424 63.0429C151.857 62.8521 151.316 62.5743 150.821 62.2202C150.126 61.8713 149.492 61.3773 148.961 60.7094C148.011 59.5123 147.516 58.0296 147.258 56.4893C147.192 56.095 146.943 54.5838 146.918 54.3479C146.838 53.586 146.758 52.8242 146.677 52.0623C146.639 51.7027 147.045 51.5811 147.269 51.7646Z" fill="black"/>
<path fill-rule="evenodd" clip-rule="evenodd" d="M169.724 44.0886C169.258 44.1819 168.849 44.3291 168.517 44.7003C168.158 45.1031 167.99 45.5892 167.87 46.1265C167.733 46.7378 168.807 46.8915 168.76 46.1759L168.758 46.1539C168.739 45.9446 168.767 45.7222 168.829 45.5024C168.896 45.5513 168.973 45.5868 169.049 45.5938C169.141 45.6023 169.244 45.5264 169.218 45.415C169.189 45.2914 169.109 45.161 169.006 45.0892L168.992 45.0794V45.0794C169.181 44.6941 169.46 44.3535 169.753 44.1581C169.783 44.1385 169.758 44.0817 169.724 44.0886Z" fill="#231F20"/>
<path fill-rule="evenodd" clip-rule="evenodd" d="M151.939 54.9141C152.532 55.1786 153.233 55.2411 153.845 55.0157C154.43 54.8002 154.962 54.3206 155.284 53.7174C155.57 53.1802 155.69 52.5426 155.521 51.9071C155.512 51.8766 155.486 51.8572 155.461 51.8496C155.322 51.9926 155.237 52.1347 155.151 52.276C155.007 52.5144 154.863 52.7502 154.664 52.954C154.376 53.2504 153.987 53.4912 153.601 53.5706C153.223 53.6485 152.837 53.5796 152.498 53.3745C152.293 53.2499 152.126 53.0832 151.962 52.9159C151.782 52.7336 151.606 52.5485 151.359 52.4456C151.161 52.3631 150.953 52.4327 150.793 52.5707C150.622 52.719 150.498 52.9512 150.505 53.1939C150.516 53.57 150.661 53.8837 150.871 54.1425C151.156 54.4924 151.559 54.7445 151.939 54.9141ZM152.643 45.5423C151.983 45.9972 150.978 47.0581 151.688 48.186C152.523 49.1806 153.726 48.0403 154.319 47.5246C154.869 47.1249 155.487 48.1528 154.977 48.6195C150.692 52.2171 148.954 45.6612 152.309 45.0073C152.679 44.9353 152.816 45.4015 152.643 45.5423ZM159.585 39.2383C158.685 39.1895 157.892 39.6477 157.035 39.8558C156.243 40.0483 155.463 39.9327 154.692 39.6879C153.442 39.2905 152.925 41.4613 154.158 41.8843C155.056 42.1924 156.002 42.2138 156.924 42.055C157.742 41.9139 158.429 41.4619 159.209 41.1987C159.879 40.973 160.667 41.0668 161.374 41.1731L161.649 41.215C162.057 41.2773 162.467 41.3398 162.871 41.4303C163.222 41.5089 163.572 41.6528 163.93 41.6694C163.971 41.6714 164.005 41.6115 163.979 41.5716C163.564 40.9243 162.762 40.4135 162.125 40.0729L162.082 40.0499C161.295 39.6339 160.461 39.2857 159.585 39.2383ZM159.914 44.0115L159.914 43.9892C159.913 43.3571 159.588 41.9139 158.786 41.9139C158.285 41.9139 157.981 42.8961 157.928 43.9086L157.926 43.9499C157.903 44.5793 158.055 45.9552 158.786 45.9552C159.525 45.9552 159.907 44.6521 159.914 44.0115V44.0115ZM148.102 44.0115L148.102 43.9892C148.103 43.3571 148.428 41.9139 149.23 41.9139C149.719 41.9139 150.02 42.8476 150.084 43.8327L150.088 43.9086C150.12 44.5168 149.978 45.9552 149.23 45.9552C148.492 45.9552 148.11 44.6521 148.102 44.0115V44.0115ZM148.115 38.4684L148.057 38.4699C147.12 38.5067 146.155 39.1367 145.905 40.1948C145.892 40.2497 145.952 40.2867 145.987 40.249C146.758 39.4304 147.795 40.2126 148.567 40.6226L148.85 40.7712C149.845 41.2963 150.977 41.9136 152.082 41.5223C152.607 41.3364 152.94 40.7249 152.791 40.1072C152.658 39.5575 152.073 39.0956 151.566 39.294L151.543 39.3035C151.131 39.4821 150.625 39.3011 150.2 39.1227L149.851 38.974C149.289 38.7323 148.725 38.4619 148.115 38.4684V38.4684Z" fill="black"/>
<path d="M148.5 57.5C146.833 63.5 144.7 76.3 149.5 79.5C155.5 83.5 161.5 83.5 166 78.5C169.6 74.5 171.833 65.8333 172.5 62C170.333 60.3333 166 56.9 166 56.5" stroke="black"/>
<path d="M164.5 55.5C168 58.1667 175 63.5 175 63.5" stroke="black"/>
<path d="M161.5 103C161.5 103.276 161.724 103.5 162 103.5C162.276 103.5 162.5 103.276 162.5 103L161.5 103ZM151.803 98.4596C153.466 99.1723 155.959 100.276 158.034 101.272C159.072 101.771 159.998 102.238 160.66 102.614C160.993 102.802 161.245 102.96 161.41 103.082C161.494 103.144 161.538 103.184 161.557 103.205C161.566 103.215 161.558 103.208 161.546 103.186C161.535 103.167 161.5 103.1 161.5 103L162.5 103C162.5 102.864 162.452 102.757 162.416 102.693C162.378 102.626 162.332 102.57 162.292 102.526C162.211 102.439 162.109 102.355 162.004 102.278C161.791 102.12 161.497 101.939 161.153 101.744C160.461 101.351 159.511 100.872 158.466 100.371C156.374 99.3665 153.867 98.2563 152.197 97.5404L151.803 98.4596Z" fill="black"/>
<path d="M131 69C133 71.5 139 72 147 56" stroke="black"/>
<path d="M148.5 108C151.167 111.5 156.8 118.4 158 118" stroke="black"/>
<circle cx="181" cy="16" r="6" fill="white" stroke="#151C35" stroke-linejoin="round"/>
<circle cx="189" cy="37" r="5" fill="white" stroke="#151C35" stroke-linejoin="round"/>
<circle cx="181" cy="53" r="4" fill="white" stroke="#151C35" stroke-linejoin="round"/>
<path d="M92.781 183C89.581 183 88.1143 187.333 87.781 189.5C85.4476 187.333 80.281 183.6 78.281 186C76.281 188.4 85.4476 194.667 90.281 197.5C92.4476 192.667 95.981 183 92.781 183Z" fill="#F25454" stroke="#151C35" stroke-linejoin="round"/>
<path d="M90.923 166.538C89.7447 163.669 84.0682 166.235 82.0429 167.448C82.0429 165.021 81.4821 160.348 79.2387 161.076C76.9953 161.804 78.3039 168.662 79.2387 172C84.0682 171.09 91.8578 168.814 90.923 166.538Z" fill="#F25454" stroke="#151C35" stroke-linejoin="round"/>
<path d="M100.495 167.046C102.499 167.54 103 173.221 103 176C99.8683 176 93.9179 174.765 95.1707 172.604C95.6981 171.694 97.9892 171.883 98.9287 171.986C98.6156 170.134 98.4903 166.552 100.495 167.046Z" fill="#F25454" stroke="#151C35" stroke-linejoin="round"/>
<defs>
<linearGradient id="paint0_linear_8_2" x1="134.5" y1="2" x2="134.5" y2="200" gradientUnits="userSpaceOnUse">
<stop stop-color="#DB2777"/>
<stop offset="1" stop-color="#9333EA"/>
</linearGradient>
</defs>
</svg>
